<?xml version="1.0" encoding="iso-8859-1"?>
<!DOCTYPE svg PUBLIC "-//W3C//DTD SVG 1.1//EN" "http://www.w3.org/Graphics/SVG/1.1/DTD/svg11.dtd">
<svg version="1.1" id="download"
	xmlns="http://www.w3.org/2000/svg" xmlns:xlink="http://www.w3.org/1999/xlink" x="0px" y="0px" viewBox="-1.02083 -256.962 2304.6 1537.02"
	xml:space="preserve">
	<g transform="translate(0, 1024)">
		<path fill="white" transform="scale(1, -1)"
			d="M1280 192q0 26 -19 45t-45 19t-45 -19t-19 -45t19 -45t45 -19t45 19t19 45zM1536 192q0 26 -19 45t-45 19t-45 -19t-19 -45t19 -45t45 -19t45 19t19 45zM1664 416v-320q0 -40 -28 -68t-68 -28h-1472q-40 0 -68 28t-28 68v320q0 40 28 68t68 28h465l135 -136
			q58 -56 136 -56t136 56l136 136h464q40 0 68 -28t28 -68zM1339 985q17 -41 -14 -70l-448 -448q-18 -19 -45 -19t-45 19l-448 448q-31 29 -14 70q17 39 59 39h256v448q0 26 19 45t45 19h256q26 0 45 -19t19 -45v-448h256q42 0 59 -39z" />
	</g>
</svg>
